<svg width="95" height="95" xmlns="http://www.w3.org/2000/svg"><!-- Copyright: Zhunag Zejin(heineiuo@gmail.com) --><g fill="none" fill-rule="evenodd"><rect fill="#000" width="95" height="95" rx="16"/><g fill="#FFF"><path d="M55.228 75.752c6.803-8.496 10.742-18.895 11.819-31.198.255-2.916.295-5.931.12-9.046a69.494 69.494 0 0 0-1.103-9.084c-.56-2.941-1.28-5.69-2.163-8.247-.883-2.557-1.9-4.78-3.053-6.672l8.921-3.49c3.254 4.968 5.588 10.67 7 17.107 1.413 6.437 1.79 13.415 1.133 20.933a65.898 65.898 0 0 1-1.606 9.777 62.489 62.489 0 0 1-3.028 9.308 58.116 58.116 0 0 1-4.334 8.436c-1.655 2.656-3.498 5.043-5.527 7.162l-8.18-4.986zM43.856 53.433l-.912 13.045-21.957-15.724.623-8.901 22.246 11.58zM22.71 26.122L23.627 13l21.957 15.724-.622 8.901L22.71 26.122z"/></g></g></svg>